<mxfile host="Electron" modified="2024-05-27T20:05:21.497Z" agent="Mozilla/5.0 (Windows NT 10.0; Win64; x64) AppleWebKit/537.36 (KHTML, like Gecko) draw.io/24.4.8 Chrome/124.0.6367.207 Electron/30.0.6 Safari/537.36" etag="CT0-0ICVnUi67xLGAGg_" version="24.4.8" type="device">
  <diagram id="C5RBs43oDa-KdzZeNtuy" name="Page-1">
    <mxGraphModel dx="1418" dy="828" grid="1" gridSize="10" guides="1" tooltips="1" connect="1" arrows="1" fold="1" page="1" pageScale="1" pageWidth="827" pageHeight="1169" math="0" shadow="0">
      <root>
        <mxCell id="0" />
        <mxCell id="1" parent="0" />
        <mxCell id="Producto" value="Producto" style="swimlane;fontStyle=2;align=center;verticalAlign=top;childLayout=stackLayout;horizontal=1;startSize=26;horizontalStack=0;resizeParent=1;resizeLast=0;collapsible=1;marginBottom=0;rounded=0;shadow=0;strokeWidth=1;" parent="1" vertex="1">
          <mxGeometry x="339" y="120" width="160" height="180" as="geometry" />
        </mxCell>
        <mxCell id="ProductoAtributos" value="id&#xa;nombre&#xa;descripción&#xa;precio&#xa;cantidad" style="text;align=left;verticalAlign=top;spacingLeft=4;spacingRight=4;overflow=hidden;rotatable=0;" parent="Producto" vertex="1">
          <mxGeometry y="26" width="160" height="90" as="geometry" />
        </mxCell>
        <mxCell id="ProductoMétodos" value="agregarProducto()&#xa;actualizarProducto()&#xa;eliminarProducto()" style="text;align=left;verticalAlign=top;spacingLeft=4;spacingRight=4;overflow=hidden;rotatable=0;" parent="Producto" vertex="1">
          <mxGeometry y="116" width="160" height="60" as="geometry" />
        </mxCell>
        <mxCell id="Venta" value="Venta" style="swimlane;fontStyle=2;align=center;verticalAlign=top;childLayout=stackLayout;horizontal=1;startSize=26;horizontalStack=0;resizeParent=1;resizeLast=0;collapsible=1;marginBottom=0;rounded=0;shadow=0;strokeWidth=1;" parent="1" vertex="1">
          <mxGeometry x="99" y="300" width="160" height="150" as="geometry" />
        </mxCell>
        <mxCell id="VentaAtributos" value="id&#xa;fecha&#xa;listaProductos&#xa;total" style="text;align=left;verticalAlign=top;spacingLeft=4;spacingRight=4;overflow=hidden;rotatable=0;" parent="Venta" vertex="1">
          <mxGeometry y="26" width="160" height="90" as="geometry" />
        </mxCell>
        <mxCell id="VentaMétodos" value="realizarVenta()" style="text;align=left;verticalAlign=top;spacingLeft=4;spacingRight=4;overflow=hidden;rotatable=0;" parent="Venta" vertex="1">
          <mxGeometry y="116" width="160" height="30" as="geometry" />
        </mxCell>
        <mxCell id="DDv3KYlhjIngwUqaMp6u-7" style="edgeStyle=orthogonalEdgeStyle;rounded=0;orthogonalLoop=1;jettySize=auto;html=1;exitX=0.5;exitY=0;exitDx=0;exitDy=0;entryX=0.5;entryY=1;entryDx=0;entryDy=0;" edge="1" parent="1" source="Empleado" target="Venta">
          <mxGeometry relative="1" as="geometry">
            <Array as="points">
              <mxPoint x="419" y="515" />
              <mxPoint x="179" y="515" />
            </Array>
          </mxGeometry>
        </mxCell>
        <mxCell id="DDv3KYlhjIngwUqaMp6u-8" style="edgeStyle=orthogonalEdgeStyle;rounded=0;orthogonalLoop=1;jettySize=auto;html=1;exitX=0.5;exitY=0;exitDx=0;exitDy=0;entryX=0;entryY=0.5;entryDx=0;entryDy=0;" edge="1" parent="1" source="Empleado" target="ReporteMétodos">
          <mxGeometry relative="1" as="geometry" />
        </mxCell>
        <mxCell id="DDv3KYlhjIngwUqaMp6u-9" style="edgeStyle=orthogonalEdgeStyle;rounded=0;orthogonalLoop=1;jettySize=auto;html=1;exitX=0.5;exitY=0;exitDx=0;exitDy=0;entryX=0.25;entryY=1;entryDx=0;entryDy=0;" edge="1" parent="1" source="Empleado" target="ProductoMétodos">
          <mxGeometry relative="1" as="geometry" />
        </mxCell>
        <mxCell id="Empleado" value="Empleado" style="swimlane;fontStyle=2;align=center;verticalAlign=top;childLayout=stackLayout;horizontal=1;startSize=26;horizontalStack=0;resizeParent=1;resizeLast=0;collapsible=1;marginBottom=0;rounded=0;shadow=0;strokeWidth=1;" parent="1" vertex="1">
          <mxGeometry x="339" y="550" width="160" height="146" as="geometry" />
        </mxCell>
        <mxCell id="EmpleadoAtributos" value="id&#xa;nombre&#xa;rol" style="text;align=left;verticalAlign=top;spacingLeft=4;spacingRight=4;overflow=hidden;rotatable=0;" parent="Empleado" vertex="1">
          <mxGeometry y="26" width="160" height="60" as="geometry" />
        </mxCell>
        <mxCell id="EmpleadoMétodos" value="gestionarInventario()&#xa;realizarVenta()&#xa;generarReporte()" style="text;align=left;verticalAlign=top;spacingLeft=4;spacingRight=4;overflow=hidden;rotatable=0;" parent="Empleado" vertex="1">
          <mxGeometry y="86" width="160" height="60" as="geometry" />
        </mxCell>
        <mxCell id="Reporte" value="Reporte" style="swimlane;fontStyle=2;align=center;verticalAlign=top;childLayout=stackLayout;horizontal=1;startSize=26;horizontalStack=0;resizeParent=1;resizeLast=0;collapsible=1;marginBottom=0;rounded=0;shadow=0;strokeWidth=1;" parent="1" vertex="1">
          <mxGeometry x="579" y="300" width="160" height="116" as="geometry" />
        </mxCell>
        <mxCell id="ReporteAtributos" value="id&#xa;fecha&#xa;productosStock" style="text;align=left;verticalAlign=top;spacingLeft=4;spacingRight=4;overflow=hidden;rotatable=0;" parent="Reporte" vertex="1">
          <mxGeometry y="26" width="160" height="60" as="geometry" />
        </mxCell>
        <mxCell id="ReporteMétodos" value="generarReporteStock()" style="text;align=left;verticalAlign=top;spacingLeft=4;spacingRight=4;overflow=hidden;rotatable=0;" parent="Reporte" vertex="1">
          <mxGeometry y="86" width="160" height="30" as="geometry" />
        </mxCell>
        <mxCell id="Administrador" value="Administrador" style="swimlane;fontStyle=2;align=center;verticalAlign=top;childLayout=stackLayout;horizontal=1;startSize=26;horizontalStack=0;resizeParent=1;resizeLast=0;collapsible=1;marginBottom=0;rounded=0;shadow=0;strokeWidth=1;" parent="1" vertex="1">
          <mxGeometry x="89" y="550" width="160" height="180" as="geometry" />
        </mxCell>
        <mxCell id="AdministradorAtributos" value="id&#xa;nombre&#xa;rol" style="text;align=left;verticalAlign=top;spacingLeft=4;spacingRight=4;overflow=hidden;rotatable=0;" parent="Administrador" vertex="1">
          <mxGeometry y="26" width="160" height="60" as="geometry" />
        </mxCell>
        <mxCell id="AdministradorMétodos" value="gestionarInventario()&#xa;realizarVenta()&#xa;generarReporte()&#xa;agregarEmpleado()&#xa;eliminarEmpleado()" style="text;align=left;verticalAlign=top;spacingLeft=4;spacingRight=4;overflow=hidden;rotatable=0;" parent="Administrador" vertex="1">
          <mxGeometry y="86" width="160" height="90" as="geometry" />
        </mxCell>
        <mxCell id="herenciaAdministrador" value="" style="endArrow=block;endSize=10;endFill=1;html=1;" parent="1" source="Administrador" target="Empleado" edge="1">
          <mxGeometry relative="1" as="geometry" />
        </mxCell>
      </root>
    </mxGraphModel>
  </diagram>
</mxfile>
